<svg width="23" height="15" viewBox="0 0 23 15" fill="none" xmlns="http://www.w3.org/2000/svg">
<path d="M22.9996 1.90022C22.9996 1.41174 22.8057 0.969813 22.4963 0.63287C22.4911 0.626178 22.49 0.618289 22.4844 0.611559C22.4792 0.605652 22.4721 0.603259 22.4665 0.597763C22.1147 0.231583 21.619 0 21.0669 0H1.93306C1.38099 0 0.885221 0.231583 0.532636 0.597763C0.527487 0.603259 0.519934 0.605652 0.514785 0.61197C0.509223 0.618289 0.508058 0.626552 0.502909 0.633282C0.193956 0.970224 0 1.41174 0 1.90022V13.0997C0 13.6 0.201885 14.0526 0.524706 14.3923C0.531057 14.3994 0.533049 14.4081 0.54019 14.4148C0.542557 14.4172 0.545338 14.4176 0.547743 14.42C0.899539 14.7767 1.38933 15 1.93309 15H21.0669C21.6107 15 22.1009 14.7763 22.4523 14.4196C22.4547 14.4176 22.4574 14.4169 22.4598 14.4149C22.4666 14.4086 22.4685 14.3999 22.4749 14.3932C22.7981 14.0534 23 13.6005 23 13.0997V1.90022H22.9996ZM15.4716 6.90811L22.0997 1.44053C22.1647 1.581 22.2032 1.73605 22.2032 1.90018V13.0997C22.2032 13.2481 22.1723 13.3889 22.1187 13.5187L15.4716 6.90811ZM21.0669 0.783171C21.2339 0.783171 21.3913 0.821045 21.5345 0.884979L11.5 9.16191L1.46547 0.884979C1.60866 0.821083 1.76612 0.783171 1.93306 0.783171H21.0669ZM0.881275 13.5184C0.827722 13.389 0.796793 13.2477 0.796793 13.0993V1.90022C0.796793 1.73608 0.835276 1.581 0.900291 1.44057L7.52838 6.90814L0.881275 13.5184ZM1.93306 14.2164C1.74906 14.2164 1.57769 14.169 1.42383 14.0925L8.14073 7.41281L11.2442 9.97282C11.3179 10.034 11.4091 10.0648 11.5 10.0648C11.5908 10.0648 11.682 10.034 11.7558 9.97282L14.8592 7.41281L21.5761 14.0925C21.4222 14.169 21.2509 14.2164 21.0669 14.2164H1.93306Z" fill="black"/>
</svg>
