<svg width="98" height="28" viewBox="0 0 98 28" fill="none" xmlns="http://www.w3.org/2000/svg">
<path d="M0 5.93938H4.24242L5.09091 8.27271H5.30303C5.58586 7.77776 5.93939 7.28281 6.39899 6.92928C7.21212 6.25756 8.34343 5.51514 10.1818 5.51514H12.303C14 5.51514 15.096 6.22221 15.9091 6.92928C16.3333 7.31817 16.6869 7.77776 16.9697 8.27271H17.1818C17.4646 7.77776 17.8182 7.28281 18.2778 6.92928C19.0909 6.25756 20.2222 5.51514 22.0606 5.51514H25.6667C28.601 5.51514 31.1818 8.09595 31.1818 11.0303V27.5757H25.0303V13.1515C25.0303 11.7374 24.3232 11.0303 22.9091 11.0303H20.7879C19.3737 11.0303 18.6667 11.7374 18.6667 13.1515V27.5757H12.5152V13.1515C12.5152 11.7374 11.8081 11.0303 10.3939 11.0303H9.12121C6.96465 11.0303 6.15152 11.8434 6.15152 14V27.5757H0V5.93938Z" fill="black"/>
<path d="M34.1516 11.0303C34.1516 8.09595 36.7324 5.51514 39.6668 5.51514H47.7274C50.6617 5.51514 53.2425 8.09595 53.2425 11.0303V19.0909H40.3031V20.5757C40.3031 21.9899 41.0102 22.697 42.4243 22.697H52.1819V27.5757H39.6668C36.7324 27.5757 34.1516 24.9949 34.1516 22.0606V11.0303ZM47.091 14.4242V12.5151C47.091 11.101 46.3839 10.3939 44.9698 10.3939H42.4243C41.0102 10.3939 40.3031 11.101 40.3031 12.5151V14.4242H47.091Z" fill="black"/>
<path d="M57.9092 11.0303H54.9395V5.93939H58.3334L60.4546 0H64.0607V5.93939H69.1516V9.33333L67.4546 11.0303H64.0607V19.9394C64.0607 21.3535 64.7677 22.0606 66.1819 22.0606H69.7879V27.5758H63.4243C60.49 27.5758 57.9092 24.9949 57.9092 22.0606V11.0303Z" fill="black"/>
<path d="M71.0605 19.9395C71.0605 17.0051 73.6414 14.4243 76.5757 14.4243H83.3636V12.9395C83.3636 11.5253 82.6565 10.8182 81.2424 10.8182H72.9696V5.93945H83.9999C86.9343 5.93945 89.5151 8.52026 89.5151 11.4546V27.5758H85.2727L84.4242 25.2425H84.2121C83.9292 25.8081 83.5757 26.2677 83.1161 26.6566C82.303 27.3283 81.1717 28.0001 79.3333 28.0001H76.5757C73.6414 28.0001 71.0605 25.4193 71.0605 22.4849V19.9395ZM80.3939 23.1213C82.5504 23.1213 83.3636 22.3081 83.3636 20.1516V18.6667H79.3333C77.9191 18.6667 77.2121 19.3738 77.2121 20.7879V21.0001C77.2121 22.4142 77.9191 23.1213 79.3333 23.1213H80.3939Z" fill="black"/>
<path d="M92.4849 21.2119H98V27.5756H92.4849V21.2119Z" fill="#24F2AD"/>
</svg>
