<svg width="403" height="115" viewBox="0 0 403 115" fill="none" xmlns="http://www.w3.org/2000/svg">
<path d="M0 24.3938H17.4242L20.9091 33.9771H21.7803C22.9419 31.9443 24.3939 29.9115 26.2816 28.4594C29.6212 25.7006 34.2677 22.6514 41.8182 22.6514H50.5303C57.5 22.6514 62.0013 25.5554 65.3409 28.4594C67.0833 30.0567 68.5354 31.9443 69.697 33.9771H70.5682C71.7298 31.9443 73.1818 29.9115 75.0694 28.4594C78.4091 25.7006 83.0556 22.6514 90.6061 22.6514H105.417C117.468 22.6514 128.068 33.2511 128.068 45.3029V113.257H102.803V54.015C102.803 48.2069 99.899 45.3029 94.0909 45.3029H85.3788C79.5707 45.3029 76.6667 48.2069 76.6667 54.015V113.257H51.4015V54.015C51.4015 48.2069 48.4975 45.3029 42.6894 45.3029H37.4621C28.6048 45.3029 25.2652 48.6425 25.2652 57.4999V113.257H0V24.3938Z" fill="white"/>
<path d="M140.266 45.3029C140.266 33.2511 150.865 22.6514 162.917 22.6514H196.023C208.075 22.6514 218.675 33.2511 218.675 45.3029V78.4089H165.531V84.5074C165.531 90.3155 168.435 93.2196 174.243 93.2196H214.319V113.257H162.917C150.865 113.257 140.266 102.658 140.266 90.6059V45.3029ZM193.409 59.2423V51.4014C193.409 45.5933 190.505 42.6892 184.697 42.6892H174.243C168.435 42.6892 165.531 45.5933 165.531 51.4014V59.2423H193.409Z" fill="white"/>
<path d="M237.841 45.303H225.644V24.3939H239.584L248.296 0H263.106V24.3939H284.015V38.3333L277.046 45.303H263.106V81.8939C263.106 87.702 266.01 90.6061 271.818 90.6061H286.629V113.258H260.493C248.441 113.258 237.841 102.658 237.841 90.6061V45.303Z" fill="white"/>
<path d="M291.856 81.8941C291.856 69.8423 302.456 59.2425 314.507 59.2425H342.386V53.144C342.386 47.336 339.482 44.4319 333.674 44.4319H299.697V24.394H345C357.052 24.394 367.651 34.9938 367.651 47.0456V113.258H350.227L346.742 103.674H345.871C344.709 105.998 343.257 107.885 341.37 109.482C338.03 112.241 333.384 115 325.833 115H314.507C302.456 115 291.856 104.4 291.856 92.3486V81.8941ZM330.189 94.9622C339.046 94.9622 342.386 91.6226 342.386 82.7653V76.6668H325.833C320.025 76.6668 317.121 79.5708 317.121 85.3789V86.2501C317.121 92.0582 320.025 94.9622 325.833 94.9622H330.189Z" fill="white"/>
<path d="M379.849 87.1216H402.5V113.258H379.849V87.1216Z" fill="#24F2AD"/>
</svg>
